#tb 0: 1/14587
0,          0,          0,        0,   478144, 0x6ed01dcd
0,       1000,       1000,        0,   478144, 0x6ed01dcd
0,       2000,       2000,        0,   478144, 0x6ed01dcd
0,       3000,       3000,        0,   478144, 0xb1b4a74b
0,       4000,       4000,        0,   478144, 0x94c345c3
0,       5000,       5000,        0,   478144, 0x05e0388d
0,       6000,       6000,        0,   478144, 0xe747476a
0,       7000,       7000,        0,   478144, 0x8c1561f1
0,       8000,       8000,        0,   478144, 0x8c1561f1
0,       9000,       9000,        0,   478144, 0x8c1561f1
